Coordinates
version=1
nRows=31
nColumns=38
inDegrees=no

Units are S.I. units (second, meters, Newtons, ...)
If the header above contains a line with 'inDegrees', this indicates whether rotational values are in degrees (yes) or radians (no).

endheader
time	pelvis_tilt	pelvis_list	pelvis_rotation	pelvis_tx	pelvis_ty	pelvis_tz	hip_flexion_r	hip_adduction_r	hip_rotation_r	knee_angle_r	ankle_angle_r	subtalar_angle_r	mtp_angle_r	hip_flexion_l	hip_adduction_l	hip_rotation_l	knee_angle_l	ankle_angle_l	subtalar_angle_l	mtp_angle_l	lumbar_extension	lumbar_bending	lumbar_rotation	arm_flex_r	arm_add_r	arm_rot_r	elbow_flex_r	pro_sup_r	wrist_flex_r	wrist_dev_r	arm_flex_l	arm_add_l	arm_rot_l	elbow_flex_l	pro_sup_l	wrist_flex_l	wrist_dev_l
140	1.09206	1.27372	1.04659	1.29032	1.73996	0.958447	0.117664	-0.0443964	-0.0245519	0.788163	-0.64924	0	0	0.685379	-0.110483	-0.368877	0.554486	-0.200926	0	0	0.155745	0.125443	0.127666	-0.00968918	-0.320433	0.29486	0.474749	1.45978	0	0	-0.0203045	-0.351454	1.37804	0.371024	0.472725	0	0
140.01	1.05358	1.26889	1.08835	1.28424	1.74775	0.957347	0.173332	-0.0607892	-0.0126457	0.868957	-0.696278	0	0	0.698053	-0.103333	-0.357844	0.580959	-0.192118	0	0	0.176501	0.111068	0.130746	-0.00251709	-0.303586	0.314397	0.44167	1.46854	0	0	-0.0247739	-0.349664	1.37597	0.357869	0.462948	0	0
140.02	1.04595	1.27284	1.10374	1.27706	1.75588	0.957629	0.200067	-0.0691211	0.000907857	0.910888	-0.698132	0	0	0.692766	-0.0969077	-0.35279	0.597461	-0.183972	0	0	0.179156	0.100782	0.133198	0.000529909	-0.293974	0.332233	0.42377	1.48296	0	0	-0.0221592	-0.350101	1.38634	0.3517	0.451404	0	0
140.03	1.04452	1.27743	1.11341	1.26956	1.76397	0.958231	0.223732	-0.0758816	0.0147973	0.948602	-0.698132	0	0	0.683033	-0.090167	-0.351808	0.608094	-0.175178	0	0	0.179884	0.0927803	0.135324	0.004236	-0.285481	0.350818	0.405875	1.50049	0	0	-0.018779	-0.349861	1.39835	0.346303	0.437175	0	0
140.04	1.04748	1.28113	1.11895	1.26186	1.7719	0.959045	0.246311	-0.0811719	0.0288706	0.982359	-0.698132	0	0	0.671559	-0.0842757	-0.350949	0.616157	-0.166591	0	0	0.181312	0.0873923	0.136835	0.0083778	-0.27812	0.37066	0.387765	1.51959	0	0	-0.0159978	-0.348567	1.40862	0.341068	0.423091	0	0
140.05	1.055	1.28385	1.12072	1.25397	1.77959	0.960051	0.267736	-0.0848874	0.0425491	1.01215	-0.698132	0	0	0.659171	-0.0793148	-0.349939	0.622368	-0.159019	0	0	0.183921	0.0845733	0.137846	0.0120851	-0.272224	0.391266	0.370531	1.53829	0	0	-0.0139894	-0.34577	1.41502	0.334938	0.412878	0	0
140.06	1.07066	1.28518	1.11628	1.246	1.787	0.961246	0.287981	-0.0857218	0.0546851	1.03848	-0.677032	0	0	0.646332	-0.075754	-0.347693	0.625854	-0.152526	0	0	0.187452	0.084964	0.137142	0.0156518	-0.267724	0.412329	0.354108	1.55663	0	0	-0.0125369	-0.342234	1.41695	0.329132	0.409375	0	0
140.07	1.16601	1.37033	1.09264	1.23108	1.79664	0.9663	0.175165	-0.0956337	0.109357	1.04084	-0.573459	0	0	0.536209	-0.0303835	-0.354219	0.622159	-0.142572	0	0	0.103118	0.0474922	0.080769	0.0280571	-0.255141	0.436956	0.345142	1.5708	0	0	-0.00228319	-0.370447	1.40656	0.364005	0.424245	0	0
140.08	1.10645	1.28292	1.10944	1.22967	1.80091	0.963817	0.328321	-0.0843384	0.0757165	1.08273	-0.587161	0	0	0.62456	-0.0685263	-0.337092	0.628304	-0.143351	0	0	0.201161	0.0891872	0.129401	0.0208355	-0.264196	0.465427	0.327066	1.5708	0	0	-0.0156561	-0.334861	1.38521	0.320809	0.443052	0	0
140.09	1.12336	1.27916	1.11017	1.22142	1.80735	0.965171	0.349541	-0.0835142	0.0832297	1.09742	-0.558034	0	0	0.6168	-0.0642662	-0.32656	0.627973	-0.141788	0	0	0.211777	0.0921813	0.124788	0.0195806	-0.264105	0.482614	0.318064	1.5708	0	0	-0.0160435	-0.331366	1.37133	0.318147	0.460228	0	0
140.1	1.14001	1.27444	1.11315	1.21316	1.8134	0.966621	0.370916	-0.0828863	0.0885538	1.10757	-0.51867	0	0	0.609744	-0.059081	-0.312721	0.625092	-0.141569	0	0	0.223123	0.0956362	0.119873	0.0159998	-0.265437	0.492762	0.312751	1.5708	0	0	-0.0178046	-0.326519	1.3396	0.31456	0.493492	0	0
140.11	1.15896	1.27048	1.11546	1.20488	1.81922	0.968375	0.390158	-0.082615	0.0910957	1.11216	-0.48664	0	0	0.601208	-0.054009	-0.297953	0.620765	-0.14296	0	0	0.23439	0.099955	0.118948	0.006821	-0.267489	0.484369	0.311379	1.5708	0	0	-0.0173628	-0.320239	1.30432	0.309817	0.532179	0	0
140.12	1.18056	1.26719	1.11637	1.19655	1.82483	0.970284	0.407551	-0.0826362	0.0908795	1.1123	-0.45712	0	0	0.591474	-0.0496254	-0.283224	0.616069	-0.145141	0	0	0.243051	0.103063	0.113392	-0.000409983	-0.268616	0.469651	0.31111	1.5708	0	0	-0.0260942	-0.312255	1.20576	0.305702	0.630884	0	0
140.13	1.20352	1.26472	1.11647	1.18817	1.83023	0.972369	0.423243	-0.0831516	0.0887258	1.10827	-0.435263	0	0	0.580174	-0.045994	-0.271055	0.610604	-0.14797	0	0	0.251365	0.106121	0.109619	-0.00984987	-0.270538	0.451015	0.312599	1.5708	0	0	-0.0261242	-0.308749	1.17419	0.307867	0.660934	0	0
140.14	1.22559	1.26218	1.11737	1.17987	1.83547	0.974493	0.438816	-0.084049	0.0851683	1.10126	-0.404514	0	0	0.568315	-0.0427628	-0.260656	0.603624	-0.151882	0	0	0.259591	0.108823	0.107413	-0.021427	-0.271677	0.418962	0.316203	1.5708	0	0	-0.0290757	-0.304033	1.11398	0.31044	0.721547	0	0
140.15	1.25227	1.26073	1.11456	1.1717	1.84044	0.97678	0.452011	-0.0845138	0.0793174	1.09065	-0.377373	0	0	0.554655	-0.0406435	-0.251224	0.596078	-0.156262	0	0	0.264828	0.112258	0.104692	-0.0322886	-0.273294	0.386754	0.321041	1.5708	0	0	-0.0316185	-0.2983	1.04813	0.313015	0.788623	0	0
140.16	1.28412	1.25933	1.10786	1.16358	1.84513	0.979114	0.463583	-0.0846964	0.0695927	1.07623	-0.354732	0	0	0.540207	-0.0400461	-0.242089	0.587911	-0.160558	0	0	0.268957	0.117017	0.101889	-0.0434256	-0.276573	0.361606	0.327755	1.56225	0	0	-0.0302894	-0.295004	1.01517	0.31902	0.818593	0	0
140.17	1.31711	1.25647	1.10107	1.15552	1.84957	0.981302	0.475005	-0.0826839	0.0608997	1.05739	-0.328957	0	0	0.527417	-0.0406376	-0.232437	0.579966	-0.165412	0	0	0.274373	0.122541	0.0993127	-0.055721	-0.280126	0.335858	0.335684	1.54784	0	0	-0.0296569	-0.291182	0.977676	0.326494	0.848508	0	0
140.18	1.35376	1.25331	1.09166	1.14753	1.85371	0.983455	0.485202	-0.0805235	0.0482353	1.03363	-0.302082	0	0	0.514899	-0.0428937	-0.222297	0.572732	-0.170548	0	0	0.279049	0.12914	0.0965704	-0.0675087	-0.284161	0.313822	0.343502	1.53084	0	0	-0.0298188	-0.286038	0.935723	0.334695	0.8742	0	0
140.19	1.3939	1.24983	1.07991	1.13964	1.85756	0.985536	0.493877	-0.0775009	0.0326787	1.00392	-0.276351	0	0	0.502175	-0.0461975	-0.210499	0.564172	-0.175988	0	0	0.283077	0.136817	0.0936594	-0.0785421	-0.288716	0.296536	0.35063	1.51291	0	0	-0.028966	-0.2797	0.894667	0.341397	0.90431	0	0
140.2	1.43672	1.24607	1.06759	1.13175	1.86115	0.987551	0.500933	-0.0747272	0.00985377	0.967458	-0.254071	0	0	0.489242	-0.0501394	-0.197283	0.554396	-0.181328	0	0	0.287039	0.144703	0.0896779	-0.0890124	-0.293346	0.283994	0.356628	1.49505	0	0	-0.0274185	-0.273226	0.85546	0.347832	0.939637	0	0
140.21	1.48001	1.24183	1.05646	1.12388	1.86451	0.989467	0.506649	-0.0723752	-0.0175285	0.923953	-0.239234	0	0	0.476907	-0.054586	-0.183656	0.544673	-0.186446	0	0	0.291571	0.152291	0.0843317	-0.0983107	-0.297802	0.276831	0.36073	1.47812	0	0	-0.0260991	-0.266981	0.818884	0.354775	0.975918	0	0
140.22	1.52148	1.23732	1.04665	1.11628	1.86764	0.991233	0.511187	-0.0691839	-0.0375264	0.874872	-0.23077	0	0	0.465329	-0.0594907	-0.17105	0.534838	-0.191084	0	0	0.2959	0.159494	0.0802246	-0.106004	-0.30212	0.274117	0.362729	1.46449	0	0	-0.0240938	-0.26069	0.787573	0.362055	1.00271	0	0
140.23	1.56438	1.23238	1.03654	1.10901	1.8705	0.99286	0.512546	-0.0651241	-0.0504998	0.818451	-0.225535	0	0	0.454699	-0.0650995	-0.156067	0.525515	-0.195708	0	0	0.299373	0.166836	0.0763436	-0.112555	-0.306366	0.274334	0.363923	1.45067	0	0	-0.0207345	-0.253556	0.753552	0.369196	1.03054	0	0
140.24	1.60652	1.22726	1.02857	1.10212	1.87312	0.994234	0.514523	-0.0608911	-0.058553	0.764738	-0.222179	0	0	0.445222	-0.0704001	-0.13807	0.517051	-0.199903	0	0	0.30203	0.17314	0.0718094	-0.117423	-0.310282	0.278549	0.364145	1.4378	0	0	-0.0167986	-0.245792	0.720604	0.375107	1.05622	0	0
140.25	1.63987	1.22219	1.02752	1.09522	1.87579	0.995402	0.517175	-0.0585866	-0.062015	0.709236	-0.221106	0	0	0.43645	-0.0740787	-0.1221	0.507666	-0.203754	0	0	0.307055	0.177128	0.0704893	-0.12242	-0.313321	0.287839	0.361381	1.42776	0	0	-0.0128291	-0.237698	0.693016	0.378732	1.08455	0	0
140.26	1.67529	1.21684	1.02702	1.08892	1.8783	0.996298	0.518177	-0.0555891	-0.0548994	0.654782	-0.215013	0	0	0.429408	-0.0778944	-0.100015	0.499486	-0.205955	0	0	0.310811	0.180309	0.0675084	-0.125125	-0.315345	0.302492	0.356933	1.42106	0	0	-0.00741851	-0.230768	0.668294	0.382944	1.11801	0	0
140.27	1.71128	1.21203	1.02571	1.0825	1.88072	0.997038	0.517451	-0.0536695	-0.0551949	0.595657	-0.212943	0	0	0.42193	-0.0825082	-0.0799689	0.491657	-0.207566	0	0	0.314111	0.183897	0.065421	-0.128637	-0.317988	0.316653	0.353469	1.41306	0	0	-0.00235432	-0.222022	0.639319	0.386216	1.15148	0	0
140.28	1.74682	1.20642	1.02488	1.07606	1.88306	0.997498	0.517351	-0.0521896	-0.0638632	0.535047	-0.22162	0	0	0.416408	-0.0886102	-0.063818	0.485901	-0.208614	0	0	0.318588	0.187959	0.0636137	-0.133368	-0.321294	0.331214	0.351554	1.39987	0	0	0.00139647	-0.211772	0.602802	0.38982	1.1903	0	0
140.29	1.77498	1.19628	1.03022	1.07015	1.88562	0.997248	0.522607	-0.0493932	-0.0582527	0.477214	-0.226795	0	0	0.418378	-0.0964023	-0.0520649	0.482776	-0.208079	0	0	0.328281	0.190761	0.06303	-0.144818	-0.342086	0.412176	0.376024	1.31037	0	0	-0.00105119	-0.200577	0.53364	0.400609	1.2659	0	0
140.3	1.88675	1.15612	0.949961	1.06691	1.89122	0.99304	0.535948	0.00666963	-0.0428244	0.420412	-0.225559	0	0	0.437709	-0.148709	-0.00239727	0.500321	-0.173753	0	0	0.345088	0.239775	0.0585225	-0.156262	-0.350925	0.416226	0.389907	1.29829	0	0	-0.011309	-0.203554	0.500825	0.452318	1.2891	0	0
